<?xml version="1.0" encoding="UTF-8"?>
<svg viewBox="0 0 380.73529 211.09917" xmlns="http://www.w3.org/2000/svg" xmlns:xlink="http://www.w3.org/1999/xlink">
 <defs>
  <linearGradient id="b">
   <stop stop-color="#fcfcff" offset="0"/>
   <stop stop-color="#fafaff" offset=".45833"/>
   <stop stop-color="#c8c8cd" offset="1"/>
  </linearGradient>
  <linearGradient id="a">
   <stop stop-color="#9e9e9e" offset="0"/>
   <stop stop-color="#323232" offset="1"/>
  </linearGradient>
  <linearGradient id="e" x1="19.203" x2="30.599" gradientUnits="userSpaceOnUse">
   <stop stop-color="#3a3a3a" offset="0"/>
   <stop stop-color="#c5c5c5" offset="1"/>
  </linearGradient>
  <linearGradient id="j" x1="207.21" x2="205.43" y1="120.21" y2="127.18" gradientTransform="matrix(1 0 0 .87693 68.077 69.199)" gradientUnits="userSpaceOnUse" xlink:href="#a"/>
  <linearGradient id="i" x1="207.21" x2="205.43" y1="120.21" y2="127.18" gradientTransform="matrix(1 0 0 .87693 79.934 69.199)" gradientUnits="userSpaceOnUse" xlink:href="#a"/>
  <linearGradient id="h" x1="207.21" x2="205.43" y1="120.21" y2="127.18" gradientTransform="matrix(1 0 0 .87693 56.219 69.199)" gradientUnits="userSpaceOnUse" xlink:href="#a"/>
  <linearGradient id="g" x1="35.393" x2="38.717" y1="147.34" y2="115.48" gradientTransform="matrix(1 0 0 .41394 65.589 130.93)" gradientUnits="userSpaceOnUse" xlink:href="#b"/>
  <linearGradient id="f" x1="36.39" x2="39.714" y1="125.05" y2="138.87" gradientTransform="matrix(1 0 0 .41394 65.589 130.93)" gradientUnits="userSpaceOnUse" xlink:href="#b"/>
  <radialGradient id="d" cx="131.02" cy="116.22" r="65.094" gradientTransform="matrix(-1.6113 -.13803 .10627 -.63871 420.61 237.26)" gradientUnits="userSpaceOnUse" xlink:href="#a"/>
  <radialGradient id="c" cx="47.511" cy="115.41" r="22.053" gradientTransform="matrix(-4.6007 .10426 -.25927 -3.1188 357.87 515.51)" gradientUnits="userSpaceOnUse" xlink:href="#b"/>
 </defs>
 <g transform="translate(-54.751 -147.02)">
  <path d="m234.71 185.83c7.0761 0.75279 24.439 1.3652 36.817 1.3652 14.984 0 30.355 0.91012 46.022 0.91012 11.825 0 20.786 0.91011 32.215 0.91011 9.1697 0 22.806 2.0325 32.215 2.7303 22.745 1.6867 33.051 8.0248 39.885 14.107 8.5685 7.6252 13.341 14.976 4.6022 22.753-11.079 9.859-23.51 17.742-42.954 26.393-29.473 13.114-78.895 21.875-119.66 30.944-24.797 5.5167-46.155 10.09-59.828 18.202-7.8897 4.6807-12.272 9.8527-12.272 15.017 0 5.2929 9.635 11.305 15.341 16.382 3.6342 3.2341 13.628 7.5138 19.943 10.011 8.2342 3.2567 31.051 3.3737 42.954 4.5506 12.568 1.2427 24.209 2.2254 33.749 3.6404" fill="none" stroke="#2f2f2f" stroke-width="8.75"/>
  <path d="m261.35 174.62h0.59287a3.8537 3.8537 0 0 1 3.8537 3.8537v16.468a3.8537 3.8537 0 0 1 -3.8537 3.8537h-0.59287a3.8537 3.8537 0 0 1 -3.8537 -3.8537v-16.468a3.8537 3.8537 0 0 1 3.8537 -3.8537" fill="url(#h)"/>
  <path d="m285.07 174.62h0.59287a3.8537 3.8537 0 0 1 3.8537 3.8537v16.468a3.8537 3.8537 0 0 1 -3.8537 3.8537h-0.59287a3.8537 3.8537 0 0 1 -3.8537 -3.8537v-16.468a3.8537 3.8537 0 0 1 3.8537 -3.8537" fill="url(#i)"/>
  <path d="m273.21 174.62h0.59287a3.8537 3.8537 0 0 1 3.8537 3.8537v16.468a3.8537 3.8537 0 0 1 -3.8537 3.8537h-0.59287a3.8537 3.8537 0 0 1 -3.8537 -3.8537v-16.468a3.8537 3.8537 0 0 1 3.8537 -3.8537" fill="url(#j)"/>
  <path d="m54.816 155.68h64.139v62.046h-64.139z" fill="url(#c)" stroke="#000" stroke-width=".13172"/>
  <path d="m124.03 147.02c-3.2018 0-5.7886 1.8561-5.7886 4.1535v71.057c0 2.2974 2.5868 4.1535 5.7886 4.1535h104.93c3.2018 0 5.7886-1.8561 5.7886-4.1535v-3.5566l24.116-12.485v-39.197l-24.116-12.237v-3.5814c0-2.2974-2.5868-4.1535-5.7886-4.1535h-104.93z" fill="url(#d)"/>
  <g transform="matrix(1 0 0 .76143 61.589 91.865)" fill="url(#e)" stroke="#000" stroke-width=".11316">
   <path d="m19.265 106.43h11.271v11.271h-11.271z"/>
   <path d="m19.265 131.4h11.271v11.271h-11.271z"/>
  </g>
  <path d="m101.98 178.18a3.2608 3.2608 0 0 1 3.2608 3.2608v9.6756a3.2608 3.2608 0 0 1 -3.2608 3.2608 3.2608 3.2608 0 0 1 -3.2608 -3.2608v-9.6756a3.2608 3.2608 0 0 1 3.2608 -3.2608" fill="url(#g)" stroke="url(#f)" stroke-width=".23296"/>
 </g>
</svg>
